<svg width="800" height="800" viewBox="0 0 800 800" xmlns="http://www.w3.org/2000/svg">
    <defs>
        <pattern id="circuit" x="0" y="0" width="200" height="200" patternUnits="userSpaceOnUse">
            <!-- Lignes horizontales -->
            <path d="M0,50 L150,50 M50,100 L200,100 M0,150 L100,150" stroke="#4d84ff"
                stroke-width="1.5" fill="none" opacity="0.5" />

            <!-- Lignes verticales -->
            <path d="M50,0 L50,100 M100,50 L100,200 M150,0 L150,150" stroke="#4d84ff"
                stroke-width="1.5" fill="none" opacity="0.5" />

            <!-- Cercles aux intersections -->
            <circle cx="50" cy="50" r="3" fill="#00c8ff" opacity="0.7" />
            <circle cx="100" cy="100" r="3" fill="#00c8ff" opacity="0.7" />
            <circle cx="150" cy="50" r="3" fill="#00c8ff" opacity="0.7" />
            <circle cx="50" cy="100" r="3" fill="#00c8ff" opacity="0.7" />
            <circle cx="100" cy="150" r="3" fill="#00c8ff" opacity="0.7" />

            <!-- Composants électroniques stylisés -->
            <rect x="75" y="75" width="50" height="25" rx="2" stroke="#4d84ff" stroke-width="1.5"
                fill="none" opacity="0.6" />
            <circle cx="25" cy="125" r="10" stroke="#4d84ff" stroke-width="1.5" fill="none"
                opacity="0.6" />
            <path d="M175,25 L165,15 L165,35 Z" stroke="#4d84ff" stroke-width="1.5" fill="none"
                opacity="0.6" />
        </pattern>
    </defs>

    <rect width="100%" height="100%" fill="url(#circuit)" />
</svg> 