<svg xmlns="http://www.w3.org/2000/svg" width="32" height="32" viewBox="0 0 32 32">
  <defs>
    <linearGradient id="gradient" x1="0%" y1="0%" x2="100%" y2="100%">
      <stop offset="0%" stop-color="#4d84ff" />
      <stop offset="100%" stop-color="#00c8ff" />
    </linearGradient>
  </defs>
  <rect width="32" height="32" rx="6" fill="#0f1624" />
  <!-- Ghost shape -->
  <path
    d="M8,10 C8,7.8 9.8,6 12,6 L20,6 C22.2,6 24,7.8 24,10 L24,20 C24,20 24,26 16,26 C8,26 8,20 8,20 L8,10 Z"
    fill="url(#gradient)" />
  <!-- Ghost eyes -->
  <circle cx="13" cy="14" r="1.5" fill="#0f1624" />
  <circle cx="19" cy="14" r="1.5" fill="#0f1624" />
  <!-- Ghost mouth -->
  <path d="M13,18 C13,18 14.5,20 16,20 C17.5,20 19,18 19,18" stroke="#0f1624" stroke-width="1"
    fill="none" />
  <!-- Ghost bottom wavy edge -->
  <path d="M8,20 C8,20 10,22 12,20 C14,18 16,22 18,20 C20,18 22,22 24,20" stroke="url(#gradient)"
    stroke-width="1" fill="none" />
</svg> 